<?xml version="1.0" encoding="UTF-8"?>
<svg width="109px" height="90px" viewBox="0 0 109 90" version="1.1" xmlns="http://www.w3.org/2000/svg" xmlns:xlink="http://www.w3.org/1999/xlink">
    <!-- Generator: Sketch 59 (86127) - https://sketch.com -->
    <title>popup</title>
    <desc>Created with Sketch.</desc>
    <g stroke="none" stroke-width="1" fill="none" fill-rule="evenodd">
        <g transform="translate(-960.000000, -1246.000000)">
            <g transform="translate(960.000000, 1246.000000)">
                <rect stroke="#A8A8A8" stroke-width="2" fill="#525252" x="11" y="11" width="12" height="12" rx="4"></rect>
                <g transform="translate(24.000000, 26.000000)">
                    <rect fill="#525252" x="0" y="0" width="75" height="52"></rect>
                    <path d="M54,24 L54,28 L4,28 L4,24 L54,24 Z M71,16 L71,20 L4,20 L4,16 L71,16 Z" fill="#A8A8A8"></path>
                    <path d="M8,36 C10.209139,36 12,37.790861 12,40 C12,42.209139 10.209139,44 8,44 C5.790861,44 4,42.209139 4,40 C4,37.790861 5.790861,36 8,36 Z M20,36 C22.209139,36 24,37.790861 24,40 C24,42.209139 22.209139,44 20,44 C17.790861,44 16,42.209139 16,40 C16,37.790861 17.790861,36 20,36 Z M32,36 C34.209139,36 36,37.790861 36,40 C36,42.209139 34.209139,44 32,44 C29.790861,44 28,42.209139 28,40 C28,37.790861 29.790861,36 32,36 Z M44,36 C46.209139,36 48,37.790861 48,40 C48,42.209139 46.209139,44 44,44 C41.790861,44 40,42.209139 40,40 C40,37.790861 41.790861,36 44,36 Z M56,36 C58.209139,36 60,37.790861 60,40 C60,42.209139 58.209139,44 56,44 C53.790861,44 52,42.209139 52,40 C52,37.790861 53.790861,36 56,36 Z" fill="#A8A8A8"></path>
                    <g transform="translate(65.000000, 4.000000)" fill-rule="nonzero">
                        <path d="M3.37273896,3 L5.42280323,5.05006427 C5.52573226,5.1529933 5.52573226,5.31987421 5.42280323,5.42280323 C5.31987421,5.52573226 5.1529933,5.52573226 5.05006427,5.42280323 L3,3.37273896 L0.949935725,5.42280323 C0.847006704,5.52573226 0.680125787,5.52573226 0.577196766,5.42280323 C0.474267745,5.31987421 0.474267745,5.1529933 0.577196766,5.05006427 L2.62726104,3 L0.577196766,0.949935725 C0.474267745,0.847006704 0.474267745,0.680125787 0.577196766,0.577196766 C0.680125787,0.474267745 0.847006704,0.474267745 0.949935725,0.577196766 L3,2.62726104 L5.05006427,0.577196766 C5.1529933,0.474267745 5.31987421,0.474267745 5.42280323,0.577196766 C5.52573226,0.680125787 5.52573226,0.847006704 5.42280323,0.949935725 L3.37273896,3 Z" stroke="#C5C5C5" fill="#C5C5C5"></path>
                        <rect x="0" y="0" width="6" height="6"></rect>
                    </g>
                </g>
            </g>
        </g>
    </g>
</svg>