<?xml version="1.0" encoding="UTF-8"?>
<svg width="20px" height="20px" viewBox="0 0 20 20" version="1.1" xmlns="http://www.w3.org/2000/svg" xmlns:xlink="http://www.w3.org/1999/xlink">
    <!-- Generator: Sketch 59.1 (86144) - https://sketch.com -->
    <title>widget-share</title>
    <desc>Created with Sketch.</desc>
    <g stroke="none" stroke-width="1" fill="none" fill-rule="evenodd">
        <g transform="translate(-80.000000, -1179.000000)" fill="#000000" fill-rule="nonzero">
            <path d="M90,1190 C92.4852814,1190 94.5,1192.01472 94.5,1194.5 C94.5,1196.98528 92.4852814,1199 90,1199 C87.5147186,1199 85.5,1196.98528 85.5,1194.5 C85.5,1192.01472 87.5147186,1190 90,1190 Z M90,1190.9 C88.0117749,1190.9 86.4,1192.51177 86.4,1194.5 C86.4,1196.48823 88.0117749,1198.1 90,1198.1 C91.9882251,1198.1 93.6,1196.48823 93.6,1194.5 C93.6,1192.51177 91.9882251,1190.9 90,1190.9 Z M100,1183 L100,1186.5 C100,1186.77614 99.7761424,1187 99.5,1187 C99.2238576,1187 99,1186.77614 99,1186.5 L98.9993255,1184.739 L94.1778091,1190.19004 C93.9948317,1190.39686 93.6788397,1190.41619 93.4720213,1190.23321 C93.2652028,1190.05023 93.245876,1189.73424 93.4288534,1189.52742 L98.3183255,1184 L96.5,1184 C96.2238576,1184 96,1183.77614 96,1183.5 C96,1183.22386 96.2238576,1183 96.5,1183 L100,1183 Z M80,1183 L83.5,1183 C83.7761424,1183 84,1183.22386 84,1183.5 C84,1183.74546 83.8231248,1183.94961 83.5898756,1183.99194 L83.5,1184 L81.683,1184 L86.6168885,1189.48039 C86.8016638,1189.6856 86.7850952,1190.00175 86.5798814,1190.18653 C86.3746676,1190.3713 86.058519,1190.35473 85.8737437,1190.14952 L81,1184.736 L81,1186.5 C81,1186.74546 80.8231248,1186.94961 80.5898756,1186.99194 L80.5,1187 C80.2545401,1187 80.0503916,1186.82312 80.0080557,1186.58988 L80,1186.5 L80,1183 L83.5,1183 Z M90,1179 L92.4748737,1181.23067 C92.6701359,1181.40666 92.6701359,1181.69201 92.4748737,1181.868 C92.3040194,1182.022 92.0402791,1182.04125 91.8462032,1181.92575 L91.767767,1181.868 L90.4996797,1180.725 L90.5,1188.5 C90.5,1188.77614 90.2761424,1189 90,1189 C89.7238576,1189 89.5,1188.77614 89.5,1188.5 L89.4996797,1180.725 L88.232233,1181.868 C88.0613787,1182.022 87.7976384,1182.04125 87.6035626,1181.92575 L87.5251263,1181.868 C87.3515599,1181.71156 87.3322748,1181.46872 87.4672708,1181.29308 L87.5251263,1181.23067 L90,1179 Z"></path>
        </g>
    </g>
</svg>